<svg version="1.2" xmlns="http://www.w3.org/2000/svg" viewBox="0 0 700 500" width="700" height="500"><style>.a{fill:#fff}.b{display:none;fill:#fff}</style><path class="a" d="m317.5 352.8l7.7-5.9 3.9-2.5q22-13 31.1-13 20 0 43.3 36.3 14.2 22.6 14.2 36.8 0 13-9 22-8.4 9.1-25.9 19.4-5.8 3.9-16.8 10.4-10.4 6.5-43.4 16.8-33 10.4-66 10.4-28.4 0-60.1-7.8-31.1-8.4-64.7-27.2-33-19.4-59.6-46.6-26.5-27.8-44-70.5-16.8-43.3-16.8-94.4 0-49.9 16.8-90.6 16.9-41.4 42.7-68 26.6-27.1 60.2-45.3 33.7-18.7 65.4-26.5 32.3-8.4 62.1-8.4 30.4 0 61.4 9.7 31.7 9.1 47.9 18.8l15.5 9q11.7 7.1 17.5 12.3 6.5 4.6 11.7 13 5.8 8.4 5.8 18.1 0 16.2-13.6 34.9-25.2 35-45.3 35-11.6 0-33-14.3-27.2-22-72.5-22-20 0-41.4 7.8-21.3 7.1-41.4 21.3-19.4 14.3-32.3 40.2-13 25.8-13 58.2 0 33 13 58.9 12.9 25.8 33 40.7 20 14.3 41.4 21.4 21.3 7.1 40.7 7.1 20.1 0 37.6-5.2 18.1-5.2 25.9-10.3z"/><path class="a" d="m468.4 336.5l-4.3 3.6q-12.8 10.6-21.2 10.7-12 0.1-29.1-16.9-9.7-10-9.8-20-0.1-12.4 17.7-30.7l2-2q2-1.6 5.2-4.9 3.2-3.2 8.7-12.5 5.1-9.3 5-18.1-0.4-37.3-30.9-37-9.2 0.1-15.1 10.6-6.3 10.1-9 25.4-2.6 15.2-8.5 33-6.2 17.7-14.4 33-8.3 15.3-26.2 26-18.4 10.2-44.1 10.5-35.3 0.3-61.6-25.4-26.8-26.2-27.3-71.6-0.2-24 6-43.8 5.8-20.1 12.1-27.8l6-8.1 1.6-2q11.5-12.5 19.1-12.6 8.4-0.1 22.5 9.4 20.2 13.4 20.4 27.8 0.1 8.5-7.8 21-0.8 1.2-4 4.8-3.1 3.3-4.7 6.1-2 2.8-3.5 9.7-2 6.4-1.9 15.2 0.1 9.7 6.7 18.4 6.1 8.4 16.1 8.3 12-0.2 18.7-10.3 6.7-10.5 9-25.7 2.2-15.3 7.2-33.4 4.7-18.1 11.7-33.4 7.1-15.3 25-25.6 17.6-10.6 44-10.9 25.7-0.2 45.9 10 19.7 10.2 30.8 26.9 11 16.4 16.4 33.9 5.4 17.6 5.6 35.3 0.2 18.8-4.1 35.7-4.6 16.9-10.9 27.8-6.7 10.5-13.5 18.6-6.7 7.7-11.5 11z"/><path class="b" d="m245.6 336.5l4.3 3.6q12.8 10.6 21.2 10.7 12 0.1 29.1-16.9 9.7-10 9.8-20 0.1-12.4-17.7-30.7l-2-2q-2-1.6-5.2-4.9-3.2-3.2-8.7-12.5-5.1-9.3-5-18.1 0.4-37.3 30.9-37 9.2 0.1 15.1 10.6 6.3 10.1 9 25.4 2.6 15.2 8.5 33 6.2 17.7 14.4 33 8.3 15.3 26.2 26 18.4 10.2 44.1 10.5 35.3 0.3 61.6-25.4 26.8-26.2 27.3-71.6 0.2-24-6-43.8-5.8-20.1-12.1-27.8l-6-8.1-1.6-2q-11.5-12.5-19.1-12.6-8.4-0.1-22.5 9.4-20.2 13.4-20.4 27.8-0.1 8.5 7.8 21 0.8 1.2 4 4.8 3.1 3.3 4.7 6.1 2 2.8 3.5 9.7 2 6.4 1.9 15.2-0.1 9.7-6.7 18.4-6.1 8.4-16.1 8.3-12-0.2-18.7-10.3-6.7-10.5-9-25.7-2.2-15.3-7.2-33.4-4.7-18.1-11.7-33.4-7.1-15.3-25-25.6-17.6-10.6-44-10.9-25.7-0.2-45.9 10-19.7 10.2-30.8 26.9-11 16.4-16.4 33.9-5.4 17.6-5.6 35.3-0.2 18.8 4.1 35.7 4.6 16.9 10.9 27.8 6.7 10.5 13.5 18.6 6.7 7.7 11.5 11z"/></svg>